<svg xmlns="http://www.w3.org/2000/svg" width="1460" height="1020" viewBox="0 0 1460 1020">
<defs>
  <marker id="arrow" viewBox="0 0 10 10" refX="9" refY="5"
          markerWidth="7" markerHeight="7" orient="auto">
    <path d="M 0 0 L 10 5 L 0 10 z" fill="#868e96"/>
  </marker>
</defs>
<!-- Fondo -->
<rect width="1460" height="1020" fill="#f1f3f5"/>
<!-- Título -->
<text x="730" y="30" text-anchor="middle" font-family="sans-serif" font-size="18" font-weight="bold" fill="#212529">Modelo Entidad-Relación — ShopCo E-Commerce</text>
<text x="730" y="50" text-anchor="middle" font-family="sans-serif" font-size="11" fill="#6c757d">PostgreSQL 17 · Supabase · 10 tablas · 3FN · 24 constraints</text>

<!-- Leyenda -->
<rect x="20" y="950" width="420" height="55" rx="6" fill="white" stroke="#ced4da" stroke-width="1"/>
<text x="30" y="968" font-family="sans-serif" font-size="11" font-weight="bold" fill="#343a40">Leyenda badges:</text>
<rect x="30" y="976" width="22" height="12" rx="2" fill="#e8b84b"/>
<text x="56" y="986" font-family="monospace" font-size="10" fill="#343a40">PK — Primary Key</text>
<rect x="160" y="976" width="22" height="12" rx="2" fill="#5ba4f5"/>
<text x="186" y="986" font-family="monospace" font-size="10" fill="#343a40">FK — Foreign Key</text>
<rect x="290" y="976" width="22" height="12" rx="2" fill="#69db7c"/>
<text x="316" y="986" font-family="monospace" font-size="10" fill="#343a40">UK — Unique</text>
<rect x="30" y="996" width="22" height="12" rx="2" fill="#f08c00"/>
<text x="56" y="1006" font-family="monospace" font-size="10" fill="#343a40">CHECK — Constraint de valor</text>

<!-- Relaciones -->
<path d="M 340 104 C 400 84 400 144 340 134" fill="none" stroke="#868e96" stroke-width="1.5" marker-end="url(#arrow)"/><text x="410" y="114" font-family="sans-serif" font-size="10" fill="#495057">es padre de</text>
<line x1="340" y1="128" x2="400" y2="134" stroke="#868e96" stroke-width="1.5" marker-end="url(#arrow)"/>
<rect x="342" y="121" width="56" height="14" rx="3" fill="white" opacity="0.85"/>
<text x="370" y="132" text-anchor="middle" font-family="sans-serif" font-size="9" fill="#343a40">clasifica</text>
<text x="346" y="123" font-family="monospace" font-size="10" font-weight="bold" fill="#1a3a5c">1</text>
<text x="394" y="129" font-family="monospace" font-size="10" font-weight="bold" fill="#1a5c2a">N</text>
<line x1="190" y1="566" x2="190" y2="660" stroke="#868e96" stroke-width="1.5" marker-end="url(#arrow)"/>
<rect x="162" y="603" width="56" height="14" rx="3" fill="white" opacity="0.85"/>
<text x="190" y="614" text-anchor="middle" font-family="sans-serif" font-size="9" fill="#343a40">tiene</text>
<text x="190" y="570" font-family="monospace" font-size="10" font-weight="bold" fill="#1a3a5c">1</text>
<text x="190" y="646" font-family="monospace" font-size="10" font-weight="bold" fill="#1a3a5c">N</text>
<line x1="340" y1="463" x2="400" y2="461" stroke="#868e96" stroke-width="1.5" marker-end="url(#arrow)"/>
<rect x="342" y="452" width="56" height="14" rx="3" fill="white" opacity="0.85"/>
<text x="370" y="463" text-anchor="middle" font-family="sans-serif" font-size="9" fill="#343a40">realiza</text>
<text x="346" y="458" font-family="monospace" font-size="10" font-weight="bold" fill="#1a3a5c">1</text>
<text x="394" y="456" font-family="monospace" font-size="10" font-weight="bold" fill="#5c1a1a">N</text>
<line x1="340" y1="476" x2="1100" y2="519" stroke="#868e96" stroke-width="1.5" marker-end="url(#arrow)"/>
<rect x="692" y="487" width="56" height="14" rx="3" fill="white" opacity="0.85"/>
<text x="720" y="498" text-anchor="middle" font-family="sans-serif" font-size="9" fill="#343a40">escribe</text>
<text x="416" y="475" font-family="monospace" font-size="10" font-weight="bold" fill="#1a3a5c">1</text>
<text x="1024" y="510" font-family="monospace" font-size="10" font-weight="bold" fill="#3a1a5c">N</text>
<line x1="298" y1="660" x2="442" y2="544" stroke="#868e96" stroke-width="1.5" marker-end="url(#arrow)"/>
<rect x="342" y="592" width="56" height="14" rx="3" fill="white" opacity="0.85"/>
<text x="370" y="603" text-anchor="middle" font-family="sans-serif" font-size="9" fill="#343a40">destino de</text>
<text x="312" y="644" font-family="monospace" font-size="10" font-weight="bold" fill="#1a3a5c">1</text>
<text x="428" y="550" font-family="monospace" font-size="10" font-weight="bold" fill="#5c1a1a">N</text>
<line x1="700" y1="143" x2="760" y2="141" stroke="#868e96" stroke-width="1.5" marker-end="url(#arrow)"/>
<rect x="702" y="132" width="56" height="14" rx="3" fill="white" opacity="0.85"/>
<text x="730" y="143" text-anchor="middle" font-family="sans-serif" font-size="9" fill="#343a40">stock en</text>
<text x="706" y="138" font-family="monospace" font-size="10" font-weight="bold" fill="#1a5c2a">1</text>
<text x="754" y="136" font-family="monospace" font-size="10" font-weight="bold" fill="#1a5c2a">1</text>
<line x1="550" y1="246" x2="550" y2="660" stroke="#868e96" stroke-width="1.5" marker-end="url(#arrow)"/>
<rect x="522" y="443" width="56" height="14" rx="3" fill="white" opacity="0.85"/>
<text x="550" y="454" text-anchor="middle" font-family="sans-serif" font-size="9" fill="#343a40">incluido en</text>
<text x="550" y="282" font-family="monospace" font-size="10" font-weight="bold" fill="#1a5c2a">1</text>
<text x="550" y="614" font-family="monospace" font-size="10" font-weight="bold" fill="#5c1a1a">N</text>
<line x1="700" y1="229" x2="1100" y2="446" stroke="#868e96" stroke-width="1.5" marker-end="url(#arrow)"/>
<rect x="872" y="327" width="56" height="14" rx="3" fill="white" opacity="0.85"/>
<text x="900" y="338" text-anchor="middle" font-family="sans-serif" font-size="9" fill="#343a40">recibe</text>
<text x="740" y="245" font-family="monospace" font-size="10" font-weight="bold" fill="#1a5c2a">1</text>
<text x="1060" y="420" font-family="monospace" font-size="10" font-weight="bold" fill="#3a1a5c">N</text>
<line x1="550" y1="544" x2="550" y2="660" stroke="#868e96" stroke-width="1.5" marker-end="url(#arrow)"/>
<rect x="522" y="592" width="56" height="14" rx="3" fill="white" opacity="0.85"/>
<text x="550" y="603" text-anchor="middle" font-family="sans-serif" font-size="9" fill="#343a40">contiene</text>
<text x="550" y="550" font-family="monospace" font-size="10" font-weight="bold" fill="#5c1a1a">1</text>
<text x="550" y="644" font-family="monospace" font-size="10" font-weight="bold" fill="#5c1a1a">N</text>
<line x1="700" y1="461" x2="760" y2="463" stroke="#868e96" stroke-width="1.5" marker-end="url(#arrow)"/>
<rect x="702" y="452" width="56" height="14" rx="3" fill="white" opacity="0.85"/>
<text x="730" y="463" text-anchor="middle" font-family="sans-serif" font-size="9" fill="#343a40">pagado con</text>
<text x="706" y="456" font-family="monospace" font-size="10" font-weight="bold" fill="#5c1a1a">1</text>
<text x="754" y="458" font-family="monospace" font-size="10" font-weight="bold" fill="#5c3a1a">1</text>
<line x1="654" y1="544" x2="792" y2="660" stroke="#868e96" stroke-width="1.5" marker-end="url(#arrow)"/>
<rect x="695" y="592" width="56" height="14" rx="3" fill="white" opacity="0.85"/>
<text x="723" y="603" text-anchor="middle" font-family="sans-serif" font-size="9" fill="#343a40">despachado en</text>
<text x="667" y="550" font-family="monospace" font-size="10" font-weight="bold" fill="#5c1a1a">1</text>
<text x="779" y="644" font-family="monospace" font-size="10" font-weight="bold" fill="#5c3a1a">0..1</text>
<line x1="700" y1="472" x2="1100" y2="512" stroke="#868e96" stroke-width="1.5" marker-end="url(#arrow)"/>
<rect x="872" y="482" width="56" height="14" rx="3" fill="white" opacity="0.85"/>
<text x="900" y="493" text-anchor="middle" font-family="sans-serif" font-size="9" fill="#343a40">origina</text>
<text x="740" y="471" font-family="monospace" font-size="10" font-weight="bold" fill="#5c1a1a">1</text>
<text x="1060" y="503" font-family="monospace" font-size="10" font-weight="bold" fill="#3a1a5c">N</text>
<!-- Entidades -->
<rect x="44" y="54" width="300" height="130" rx="6" fill="#00000033"/>
<rect x="40" y="50" width="300" height="130" rx="6" fill="#f8f9fa" stroke="#ced4da" stroke-width="1.5"/>
<rect x="40" y="50" width="300" height="34" rx="6" fill="#1a3a5c"/>
<rect x="40" y="78" width="300" height="6" fill="#1a3a5c"/>
<text x="190" y="74" text-anchor="middle" font-family="monospace" font-size="13" font-weight="bold" fill="white">CATEGORIA</text>
<rect x="50" y="94" width="26" height="14" rx="3" fill="#e8b84b"/>
<text x="63" y="104" text-anchor="middle" font-family="monospace" font-size="8" font-weight="bold" fill="white">PK</text>
<text x="82" y="105" font-family="monospace" font-size="11" fill="#212529">categoria_id</text>
<text x="330" y="105" text-anchor="end" font-family="monospace" font-size="10" fill="#6c757d">UUID</text>
<line x1="46" y1="112" x2="334" y2="112" stroke="#dee2e6" stroke-width="0.8"/>
<rect x="50" y="116" width="26" height="14" rx="3" fill="#69db7c"/>
<text x="63" y="126" text-anchor="middle" font-family="monospace" font-size="8" font-weight="bold" fill="white">UK</text>
<text x="82" y="127" font-family="monospace" font-size="11" fill="#212529">nombre</text>
<text x="330" y="127" text-anchor="end" font-family="monospace" font-size="10" fill="#6c757d">VARCHAR</text>
<line x1="46" y1="134" x2="334" y2="134" stroke="#dee2e6" stroke-width="0.8"/>
<text x="50" y="149" font-family="monospace" font-size="11" fill="#212529">descripcion</text>
<text x="330" y="149" text-anchor="end" font-family="monospace" font-size="10" fill="#6c757d">TEXT</text>
<line x1="46" y1="156" x2="334" y2="156" stroke="#dee2e6" stroke-width="0.8"/>
<rect x="50" y="160" width="26" height="14" rx="3" fill="#5ba4f5"/>
<text x="63" y="170" text-anchor="middle" font-family="monospace" font-size="8" font-weight="bold" fill="white">FK</text>
<text x="82" y="171" font-family="monospace" font-size="11" fill="#212529">categoria_padre_id</text>
<text x="330" y="171" text-anchor="end" font-family="monospace" font-size="10" fill="#6c757d">UUID</text>
<rect x="404" y="54" width="300" height="196" rx="6" fill="#00000033"/>
<rect x="400" y="50" width="300" height="196" rx="6" fill="#f8f9fa" stroke="#ced4da" stroke-width="1.5"/>
<rect x="400" y="50" width="300" height="34" rx="6" fill="#1a5c2a"/>
<rect x="400" y="78" width="300" height="6" fill="#1a5c2a"/>
<text x="550" y="74" text-anchor="middle" font-family="monospace" font-size="13" font-weight="bold" fill="white">PRODUCTO</text>
<rect x="410" y="94" width="26" height="14" rx="3" fill="#e8b84b"/>
<text x="423" y="104" text-anchor="middle" font-family="monospace" font-size="8" font-weight="bold" fill="white">PK</text>
<text x="442" y="105" font-family="monospace" font-size="11" fill="#212529">producto_id</text>
<text x="690" y="105" text-anchor="end" font-family="monospace" font-size="10" fill="#6c757d">UUID</text>
<line x1="406" y1="112" x2="694" y2="112" stroke="#dee2e6" stroke-width="0.8"/>
<rect x="410" y="116" width="26" height="14" rx="3" fill="#69db7c"/>
<text x="423" y="126" text-anchor="middle" font-family="monospace" font-size="8" font-weight="bold" fill="white">UK</text>
<text x="442" y="127" font-family="monospace" font-size="11" fill="#212529">sku</text>
<text x="690" y="127" text-anchor="end" font-family="monospace" font-size="10" fill="#6c757d">VARCHAR</text>
<line x1="406" y1="134" x2="694" y2="134" stroke="#dee2e6" stroke-width="0.8"/>
<text x="410" y="149" font-family="monospace" font-size="11" fill="#212529">nombre</text>
<text x="690" y="149" text-anchor="end" font-family="monospace" font-size="10" fill="#6c757d">VARCHAR</text>
<line x1="406" y1="156" x2="694" y2="156" stroke="#dee2e6" stroke-width="0.8"/>
<text x="410" y="171" font-family="monospace" font-size="11" fill="#212529">precio_costo</text>
<text x="690" y="171" text-anchor="end" font-family="monospace" font-size="10" fill="#6c757d">NUMERIC</text>
<line x1="406" y1="178" x2="694" y2="178" stroke="#dee2e6" stroke-width="0.8"/>
<text x="410" y="193" font-family="monospace" font-size="11" fill="#212529">precio_venta</text>
<text x="690" y="193" text-anchor="end" font-family="monospace" font-size="10" fill="#6c757d">NUMERIC</text>
<line x1="406" y1="200" x2="694" y2="200" stroke="#dee2e6" stroke-width="0.8"/>
<rect x="410" y="204" width="26" height="14" rx="3" fill="#5ba4f5"/>
<text x="423" y="214" text-anchor="middle" font-family="monospace" font-size="8" font-weight="bold" fill="white">FK</text>
<text x="442" y="215" font-family="monospace" font-size="11" fill="#212529">categoria_id</text>
<text x="690" y="215" text-anchor="end" font-family="monospace" font-size="10" fill="#6c757d">UUID</text>
<line x1="406" y1="222" x2="694" y2="222" stroke="#dee2e6" stroke-width="0.8"/>
<text x="410" y="237" font-family="monospace" font-size="11" fill="#212529">activo</text>
<text x="690" y="237" text-anchor="end" font-family="monospace" font-size="10" fill="#6c757d">BOOLEAN</text>
<rect x="764" y="54" width="300" height="174" rx="6" fill="#00000033"/>
<rect x="760" y="50" width="300" height="174" rx="6" fill="#f8f9fa" stroke="#ced4da" stroke-width="1.5"/>
<rect x="760" y="50" width="300" height="34" rx="6" fill="#1a5c2a"/>
<rect x="760" y="78" width="300" height="6" fill="#1a5c2a"/>
<text x="910" y="74" text-anchor="middle" font-family="monospace" font-size="13" font-weight="bold" fill="white">INVENTARIO</text>
<rect x="770" y="94" width="26" height="14" rx="3" fill="#e8b84b"/>
<text x="783" y="104" text-anchor="middle" font-family="monospace" font-size="8" font-weight="bold" fill="white">PK</text>
<text x="802" y="105" font-family="monospace" font-size="11" fill="#212529">inventario_id</text>
<text x="1050" y="105" text-anchor="end" font-family="monospace" font-size="10" fill="#6c757d">UUID</text>
<line x1="766" y1="112" x2="1054" y2="112" stroke="#dee2e6" stroke-width="0.8"/>
<rect x="770" y="116" width="26" height="14" rx="3" fill="#5ba4f5"/>
<text x="783" y="126" text-anchor="middle" font-family="monospace" font-size="8" font-weight="bold" fill="white">FK</text>
<text x="802" y="127" font-family="monospace" font-size="11" fill="#212529">producto_id</text>
<text x="1050" y="127" text-anchor="end" font-family="monospace" font-size="10" fill="#6c757d">UUID</text>
<line x1="766" y1="134" x2="1054" y2="134" stroke="#dee2e6" stroke-width="0.8"/>
<text x="770" y="149" font-family="monospace" font-size="11" fill="#212529">stock</text>
<text x="1050" y="149" text-anchor="end" font-family="monospace" font-size="10" fill="#6c757d">INTEGER</text>
<line x1="766" y1="156" x2="1054" y2="156" stroke="#dee2e6" stroke-width="0.8"/>
<text x="770" y="171" font-family="monospace" font-size="11" fill="#212529">stock_minimo</text>
<text x="1050" y="171" text-anchor="end" font-family="monospace" font-size="10" fill="#6c757d">INTEGER</text>
<line x1="766" y1="178" x2="1054" y2="178" stroke="#dee2e6" stroke-width="0.8"/>
<text x="770" y="193" font-family="monospace" font-size="11" fill="#212529">ubicacion</text>
<text x="1050" y="193" text-anchor="end" font-family="monospace" font-size="10" fill="#6c757d">VARCHAR</text>
<line x1="766" y1="200" x2="1054" y2="200" stroke="#dee2e6" stroke-width="0.8"/>
<text x="770" y="215" font-family="monospace" font-size="11" fill="#212529">ultima_actualizacion</text>
<text x="1050" y="215" text-anchor="end" font-family="monospace" font-size="10" fill="#6c757d">TIMESTAMPTZ</text>
<rect x="44" y="374" width="300" height="196" rx="6" fill="#00000033"/>
<rect x="40" y="370" width="300" height="196" rx="6" fill="#f8f9fa" stroke="#ced4da" stroke-width="1.5"/>
<rect x="40" y="370" width="300" height="34" rx="6" fill="#1a3a5c"/>
<rect x="40" y="398" width="300" height="6" fill="#1a3a5c"/>
<text x="190" y="394" text-anchor="middle" font-family="monospace" font-size="13" font-weight="bold" fill="white">CLIENTE</text>
<rect x="50" y="414" width="26" height="14" rx="3" fill="#e8b84b"/>
<text x="63" y="424" text-anchor="middle" font-family="monospace" font-size="8" font-weight="bold" fill="white">PK</text>
<text x="82" y="425" font-family="monospace" font-size="11" fill="#212529">cliente_id</text>
<text x="330" y="425" text-anchor="end" font-family="monospace" font-size="10" fill="#6c757d">UUID</text>
<line x1="46" y1="432" x2="334" y2="432" stroke="#dee2e6" stroke-width="0.8"/>
<text x="50" y="447" font-family="monospace" font-size="11" fill="#212529">nombre</text>
<text x="330" y="447" text-anchor="end" font-family="monospace" font-size="10" fill="#6c757d">VARCHAR</text>
<line x1="46" y1="454" x2="334" y2="454" stroke="#dee2e6" stroke-width="0.8"/>
<text x="50" y="469" font-family="monospace" font-size="11" fill="#212529">apellido</text>
<text x="330" y="469" text-anchor="end" font-family="monospace" font-size="10" fill="#6c757d">VARCHAR</text>
<line x1="46" y1="476" x2="334" y2="476" stroke="#dee2e6" stroke-width="0.8"/>
<rect x="50" y="480" width="26" height="14" rx="3" fill="#69db7c"/>
<text x="63" y="490" text-anchor="middle" font-family="monospace" font-size="8" font-weight="bold" fill="white">UK</text>
<text x="82" y="491" font-family="monospace" font-size="11" fill="#212529">email</text>
<text x="330" y="491" text-anchor="end" font-family="monospace" font-size="10" fill="#6c757d">VARCHAR</text>
<line x1="46" y1="498" x2="334" y2="498" stroke="#dee2e6" stroke-width="0.8"/>
<text x="50" y="513" font-family="monospace" font-size="11" fill="#212529">telefono</text>
<text x="330" y="513" text-anchor="end" font-family="monospace" font-size="10" fill="#6c757d">VARCHAR</text>
<line x1="46" y1="520" x2="334" y2="520" stroke="#dee2e6" stroke-width="0.8"/>
<text x="50" y="535" font-family="monospace" font-size="11" fill="#212529">fecha_registro</text>
<text x="330" y="535" text-anchor="end" font-family="monospace" font-size="10" fill="#6c757d">TIMESTAMPTZ</text>
<line x1="46" y1="542" x2="334" y2="542" stroke="#dee2e6" stroke-width="0.8"/>
<text x="50" y="557" font-family="monospace" font-size="11" fill="#212529">activo</text>
<text x="330" y="557" text-anchor="end" font-family="monospace" font-size="10" fill="#6c757d">BOOLEAN</text>
<rect x="44" y="664" width="300" height="174" rx="6" fill="#00000033"/>
<rect x="40" y="660" width="300" height="174" rx="6" fill="#f8f9fa" stroke="#ced4da" stroke-width="1.5"/>
<rect x="40" y="660" width="300" height="34" rx="6" fill="#1a3a5c"/>
<rect x="40" y="688" width="300" height="6" fill="#1a3a5c"/>
<text x="190" y="684" text-anchor="middle" font-family="monospace" font-size="13" font-weight="bold" fill="white">DIRECCION</text>
<rect x="50" y="704" width="26" height="14" rx="3" fill="#e8b84b"/>
<text x="63" y="714" text-anchor="middle" font-family="monospace" font-size="8" font-weight="bold" fill="white">PK</text>
<text x="82" y="715" font-family="monospace" font-size="11" fill="#212529">direccion_id</text>
<text x="330" y="715" text-anchor="end" font-family="monospace" font-size="10" fill="#6c757d">UUID</text>
<line x1="46" y1="722" x2="334" y2="722" stroke="#dee2e6" stroke-width="0.8"/>
<rect x="50" y="726" width="26" height="14" rx="3" fill="#5ba4f5"/>
<text x="63" y="736" text-anchor="middle" font-family="monospace" font-size="8" font-weight="bold" fill="white">FK</text>
<text x="82" y="737" font-family="monospace" font-size="11" fill="#212529">cliente_id</text>
<text x="330" y="737" text-anchor="end" font-family="monospace" font-size="10" fill="#6c757d">UUID</text>
<line x1="46" y1="744" x2="334" y2="744" stroke="#dee2e6" stroke-width="0.8"/>
<text x="50" y="759" font-family="monospace" font-size="11" fill="#212529">calle</text>
<text x="330" y="759" text-anchor="end" font-family="monospace" font-size="10" fill="#6c757d">VARCHAR</text>
<line x1="46" y1="766" x2="334" y2="766" stroke="#dee2e6" stroke-width="0.8"/>
<text x="50" y="781" font-family="monospace" font-size="11" fill="#212529">ciudad</text>
<text x="330" y="781" text-anchor="end" font-family="monospace" font-size="10" fill="#6c757d">VARCHAR</text>
<line x1="46" y1="788" x2="334" y2="788" stroke="#dee2e6" stroke-width="0.8"/>
<text x="50" y="803" font-family="monospace" font-size="11" fill="#212529">departamento</text>
<text x="330" y="803" text-anchor="end" font-family="monospace" font-size="10" fill="#6c757d">VARCHAR</text>
<line x1="46" y1="810" x2="334" y2="810" stroke="#dee2e6" stroke-width="0.8"/>
<text x="50" y="825" font-family="monospace" font-size="11" fill="#212529">es_principal</text>
<text x="330" y="825" text-anchor="end" font-family="monospace" font-size="10" fill="#6c757d">BOOLEAN</text>
<rect x="404" y="374" width="300" height="174" rx="6" fill="#00000033"/>
<rect x="400" y="370" width="300" height="174" rx="6" fill="#f8f9fa" stroke="#ced4da" stroke-width="1.5"/>
<rect x="400" y="370" width="300" height="34" rx="6" fill="#5c1a1a"/>
<rect x="400" y="398" width="300" height="6" fill="#5c1a1a"/>
<text x="550" y="394" text-anchor="middle" font-family="monospace" font-size="13" font-weight="bold" fill="white">PEDIDO</text>
<rect x="410" y="414" width="26" height="14" rx="3" fill="#e8b84b"/>
<text x="423" y="424" text-anchor="middle" font-family="monospace" font-size="8" font-weight="bold" fill="white">PK</text>
<text x="442" y="425" font-family="monospace" font-size="11" fill="#212529">pedido_id</text>
<text x="690" y="425" text-anchor="end" font-family="monospace" font-size="10" fill="#6c757d">UUID</text>
<line x1="406" y1="432" x2="694" y2="432" stroke="#dee2e6" stroke-width="0.8"/>
<rect x="410" y="436" width="26" height="14" rx="3" fill="#5ba4f5"/>
<text x="423" y="446" text-anchor="middle" font-family="monospace" font-size="8" font-weight="bold" fill="white">FK</text>
<text x="442" y="447" font-family="monospace" font-size="11" fill="#212529">cliente_id</text>
<text x="690" y="447" text-anchor="end" font-family="monospace" font-size="10" fill="#6c757d">UUID</text>
<line x1="406" y1="454" x2="694" y2="454" stroke="#dee2e6" stroke-width="0.8"/>
<rect x="410" y="458" width="26" height="14" rx="3" fill="#5ba4f5"/>
<text x="423" y="468" text-anchor="middle" font-family="monospace" font-size="8" font-weight="bold" fill="white">FK</text>
<text x="442" y="469" font-family="monospace" font-size="11" fill="#212529">direccion_id</text>
<text x="690" y="469" text-anchor="end" font-family="monospace" font-size="10" fill="#6c757d">UUID</text>
<line x1="406" y1="476" x2="694" y2="476" stroke="#dee2e6" stroke-width="0.8"/>
<rect x="410" y="480" width="26" height="14" rx="3" fill="#f08c00"/>
<text x="423" y="490" text-anchor="middle" font-family="monospace" font-size="8" font-weight="bold" fill="white">CHECK</text>
<text x="442" y="491" font-family="monospace" font-size="11" fill="#212529">estado</text>
<text x="690" y="491" text-anchor="end" font-family="monospace" font-size="10" fill="#6c757d">VARCHAR</text>
<line x1="406" y1="498" x2="694" y2="498" stroke="#dee2e6" stroke-width="0.8"/>
<text x="410" y="513" font-family="monospace" font-size="11" fill="#212529">fecha_pedido</text>
<text x="690" y="513" text-anchor="end" font-family="monospace" font-size="10" fill="#6c757d">TIMESTAMPTZ</text>
<line x1="406" y1="520" x2="694" y2="520" stroke="#dee2e6" stroke-width="0.8"/>
<text x="410" y="535" font-family="monospace" font-size="11" fill="#212529">fecha_actualizacion</text>
<text x="690" y="535" text-anchor="end" font-family="monospace" font-size="10" fill="#6c757d">TIMESTAMPTZ</text>
<rect x="404" y="664" width="300" height="174" rx="6" fill="#00000033"/>
<rect x="400" y="660" width="300" height="174" rx="6" fill="#f8f9fa" stroke="#ced4da" stroke-width="1.5"/>
<rect x="400" y="660" width="300" height="34" rx="6" fill="#5c1a1a"/>
<rect x="400" y="688" width="300" height="6" fill="#5c1a1a"/>
<text x="550" y="684" text-anchor="middle" font-family="monospace" font-size="13" font-weight="bold" fill="white">DETALLE_PEDIDO</text>
<rect x="410" y="704" width="26" height="14" rx="3" fill="#e8b84b"/>
<text x="423" y="714" text-anchor="middle" font-family="monospace" font-size="8" font-weight="bold" fill="white">PK</text>
<text x="442" y="715" font-family="monospace" font-size="11" fill="#212529">detalle_id</text>
<text x="690" y="715" text-anchor="end" font-family="monospace" font-size="10" fill="#6c757d">UUID</text>
<line x1="406" y1="722" x2="694" y2="722" stroke="#dee2e6" stroke-width="0.8"/>
<rect x="410" y="726" width="26" height="14" rx="3" fill="#5ba4f5"/>
<text x="423" y="736" text-anchor="middle" font-family="monospace" font-size="8" font-weight="bold" fill="white">FK</text>
<text x="442" y="737" font-family="monospace" font-size="11" fill="#212529">pedido_id</text>
<text x="690" y="737" text-anchor="end" font-family="monospace" font-size="10" fill="#6c757d">UUID</text>
<line x1="406" y1="744" x2="694" y2="744" stroke="#dee2e6" stroke-width="0.8"/>
<rect x="410" y="748" width="26" height="14" rx="3" fill="#5ba4f5"/>
<text x="423" y="758" text-anchor="middle" font-family="monospace" font-size="8" font-weight="bold" fill="white">FK</text>
<text x="442" y="759" font-family="monospace" font-size="11" fill="#212529">producto_id</text>
<text x="690" y="759" text-anchor="end" font-family="monospace" font-size="10" fill="#6c757d">UUID</text>
<line x1="406" y1="766" x2="694" y2="766" stroke="#dee2e6" stroke-width="0.8"/>
<rect x="410" y="770" width="26" height="14" rx="3" fill="#f08c00"/>
<text x="423" y="780" text-anchor="middle" font-family="monospace" font-size="8" font-weight="bold" fill="white">CHECK</text>
<text x="442" y="781" font-family="monospace" font-size="11" fill="#212529">cantidad</text>
<text x="690" y="781" text-anchor="end" font-family="monospace" font-size="10" fill="#6c757d">INTEGER</text>
<line x1="406" y1="788" x2="694" y2="788" stroke="#dee2e6" stroke-width="0.8"/>
<text x="410" y="803" font-family="monospace" font-size="11" fill="#212529">precio_unitario</text>
<text x="690" y="803" text-anchor="end" font-family="monospace" font-size="10" fill="#6c757d">NUMERIC</text>
<line x1="406" y1="810" x2="694" y2="810" stroke="#dee2e6" stroke-width="0.8"/>
<rect x="410" y="814" width="26" height="14" rx="3" fill="#f08c00"/>
<text x="423" y="824" text-anchor="middle" font-family="monospace" font-size="8" font-weight="bold" fill="white">CHECK</text>
<text x="442" y="825" font-family="monospace" font-size="11" fill="#212529">descuento</text>
<text x="690" y="825" text-anchor="end" font-family="monospace" font-size="10" fill="#6c757d">NUMERIC</text>
<rect x="764" y="374" width="300" height="196" rx="6" fill="#00000033"/>
<rect x="760" y="370" width="300" height="196" rx="6" fill="#f8f9fa" stroke="#ced4da" stroke-width="1.5"/>
<rect x="760" y="370" width="300" height="34" rx="6" fill="#5c3a1a"/>
<rect x="760" y="398" width="300" height="6" fill="#5c3a1a"/>
<text x="910" y="394" text-anchor="middle" font-family="monospace" font-size="13" font-weight="bold" fill="white">PAGO</text>
<rect x="770" y="414" width="26" height="14" rx="3" fill="#e8b84b"/>
<text x="783" y="424" text-anchor="middle" font-family="monospace" font-size="8" font-weight="bold" fill="white">PK</text>
<text x="802" y="425" font-family="monospace" font-size="11" fill="#212529">pago_id</text>
<text x="1050" y="425" text-anchor="end" font-family="monospace" font-size="10" fill="#6c757d">UUID</text>
<line x1="766" y1="432" x2="1054" y2="432" stroke="#dee2e6" stroke-width="0.8"/>
<rect x="770" y="436" width="26" height="14" rx="3" fill="#5ba4f5"/>
<text x="783" y="446" text-anchor="middle" font-family="monospace" font-size="8" font-weight="bold" fill="white">FK</text>
<text x="802" y="447" font-family="monospace" font-size="11" fill="#212529">pedido_id</text>
<text x="1050" y="447" text-anchor="end" font-family="monospace" font-size="10" fill="#6c757d">UUID</text>
<line x1="766" y1="454" x2="1054" y2="454" stroke="#dee2e6" stroke-width="0.8"/>
<rect x="770" y="458" width="26" height="14" rx="3" fill="#f08c00"/>
<text x="783" y="468" text-anchor="middle" font-family="monospace" font-size="8" font-weight="bold" fill="white">CHECK</text>
<text x="802" y="469" font-family="monospace" font-size="11" fill="#212529">metodo</text>
<text x="1050" y="469" text-anchor="end" font-family="monospace" font-size="10" fill="#6c757d">VARCHAR</text>
<line x1="766" y1="476" x2="1054" y2="476" stroke="#dee2e6" stroke-width="0.8"/>
<rect x="770" y="480" width="26" height="14" rx="3" fill="#f08c00"/>
<text x="783" y="490" text-anchor="middle" font-family="monospace" font-size="8" font-weight="bold" fill="white">CHECK</text>
<text x="802" y="491" font-family="monospace" font-size="11" fill="#212529">estado</text>
<text x="1050" y="491" text-anchor="end" font-family="monospace" font-size="10" fill="#6c757d">VARCHAR</text>
<line x1="766" y1="498" x2="1054" y2="498" stroke="#dee2e6" stroke-width="0.8"/>
<rect x="770" y="502" width="26" height="14" rx="3" fill="#f08c00"/>
<text x="783" y="512" text-anchor="middle" font-family="monospace" font-size="8" font-weight="bold" fill="white">CHECK</text>
<text x="802" y="513" font-family="monospace" font-size="11" fill="#212529">monto</text>
<text x="1050" y="513" text-anchor="end" font-family="monospace" font-size="10" fill="#6c757d">NUMERIC</text>
<line x1="766" y1="520" x2="1054" y2="520" stroke="#dee2e6" stroke-width="0.8"/>
<text x="770" y="535" font-family="monospace" font-size="11" fill="#212529">referencia_externa</text>
<text x="1050" y="535" text-anchor="end" font-family="monospace" font-size="10" fill="#6c757d">VARCHAR</text>
<line x1="766" y1="542" x2="1054" y2="542" stroke="#dee2e6" stroke-width="0.8"/>
<text x="770" y="557" font-family="monospace" font-size="11" fill="#212529">fecha_pago</text>
<text x="1050" y="557" text-anchor="end" font-family="monospace" font-size="10" fill="#6c757d">TIMESTAMPTZ</text>
<rect x="764" y="664" width="300" height="196" rx="6" fill="#00000033"/>
<rect x="760" y="660" width="300" height="196" rx="6" fill="#f8f9fa" stroke="#ced4da" stroke-width="1.5"/>
<rect x="760" y="660" width="300" height="34" rx="6" fill="#5c3a1a"/>
<rect x="760" y="688" width="300" height="6" fill="#5c3a1a"/>
<text x="910" y="684" text-anchor="middle" font-family="monospace" font-size="13" font-weight="bold" fill="white">ENVIO</text>
<rect x="770" y="704" width="26" height="14" rx="3" fill="#e8b84b"/>
<text x="783" y="714" text-anchor="middle" font-family="monospace" font-size="8" font-weight="bold" fill="white">PK</text>
<text x="802" y="715" font-family="monospace" font-size="11" fill="#212529">envio_id</text>
<text x="1050" y="715" text-anchor="end" font-family="monospace" font-size="10" fill="#6c757d">UUID</text>
<line x1="766" y1="722" x2="1054" y2="722" stroke="#dee2e6" stroke-width="0.8"/>
<rect x="770" y="726" width="26" height="14" rx="3" fill="#5ba4f5"/>
<text x="783" y="736" text-anchor="middle" font-family="monospace" font-size="8" font-weight="bold" fill="white">FK</text>
<text x="802" y="737" font-family="monospace" font-size="11" fill="#212529">pedido_id</text>
<text x="1050" y="737" text-anchor="end" font-family="monospace" font-size="10" fill="#6c757d">UUID</text>
<line x1="766" y1="744" x2="1054" y2="744" stroke="#dee2e6" stroke-width="0.8"/>
<text x="770" y="759" font-family="monospace" font-size="11" fill="#212529">transportista</text>
<text x="1050" y="759" text-anchor="end" font-family="monospace" font-size="10" fill="#6c757d">VARCHAR</text>
<line x1="766" y1="766" x2="1054" y2="766" stroke="#dee2e6" stroke-width="0.8"/>
<text x="770" y="781" font-family="monospace" font-size="11" fill="#212529">numero_guia</text>
<text x="1050" y="781" text-anchor="end" font-family="monospace" font-size="10" fill="#6c757d">VARCHAR</text>
<line x1="766" y1="788" x2="1054" y2="788" stroke="#dee2e6" stroke-width="0.8"/>
<rect x="770" y="792" width="26" height="14" rx="3" fill="#f08c00"/>
<text x="783" y="802" text-anchor="middle" font-family="monospace" font-size="8" font-weight="bold" fill="white">CHECK</text>
<text x="802" y="803" font-family="monospace" font-size="11" fill="#212529">estado</text>
<text x="1050" y="803" text-anchor="end" font-family="monospace" font-size="10" fill="#6c757d">VARCHAR</text>
<line x1="766" y1="810" x2="1054" y2="810" stroke="#dee2e6" stroke-width="0.8"/>
<text x="770" y="825" font-family="monospace" font-size="11" fill="#212529">fecha_entrega_estimada</text>
<text x="1050" y="825" text-anchor="end" font-family="monospace" font-size="10" fill="#6c757d">DATE</text>
<line x1="766" y1="832" x2="1054" y2="832" stroke="#dee2e6" stroke-width="0.8"/>
<text x="770" y="847" font-family="monospace" font-size="11" fill="#212529">fecha_entrega_real</text>
<text x="1050" y="847" text-anchor="end" font-family="monospace" font-size="10" fill="#6c757d">TIMESTAMP</text>
<rect x="1104" y="434" width="300" height="196" rx="6" fill="#00000033"/>
<rect x="1100" y="430" width="300" height="196" rx="6" fill="#f8f9fa" stroke="#ced4da" stroke-width="1.5"/>
<rect x="1100" y="430" width="300" height="34" rx="6" fill="#3a1a5c"/>
<rect x="1100" y="458" width="300" height="6" fill="#3a1a5c"/>
<text x="1250" y="454" text-anchor="middle" font-family="monospace" font-size="13" font-weight="bold" fill="white">RESENA</text>
<rect x="1110" y="474" width="26" height="14" rx="3" fill="#e8b84b"/>
<text x="1123" y="484" text-anchor="middle" font-family="monospace" font-size="8" font-weight="bold" fill="white">PK</text>
<text x="1142" y="485" font-family="monospace" font-size="11" fill="#212529">resena_id</text>
<text x="1390" y="485" text-anchor="end" font-family="monospace" font-size="10" fill="#6c757d">UUID</text>
<line x1="1106" y1="492" x2="1394" y2="492" stroke="#dee2e6" stroke-width="0.8"/>
<rect x="1110" y="496" width="26" height="14" rx="3" fill="#5ba4f5"/>
<text x="1123" y="506" text-anchor="middle" font-family="monospace" font-size="8" font-weight="bold" fill="white">FK</text>
<text x="1142" y="507" font-family="monospace" font-size="11" fill="#212529">cliente_id</text>
<text x="1390" y="507" text-anchor="end" font-family="monospace" font-size="10" fill="#6c757d">UUID</text>
<line x1="1106" y1="514" x2="1394" y2="514" stroke="#dee2e6" stroke-width="0.8"/>
<rect x="1110" y="518" width="26" height="14" rx="3" fill="#5ba4f5"/>
<text x="1123" y="528" text-anchor="middle" font-family="monospace" font-size="8" font-weight="bold" fill="white">FK</text>
<text x="1142" y="529" font-family="monospace" font-size="11" fill="#212529">producto_id</text>
<text x="1390" y="529" text-anchor="end" font-family="monospace" font-size="10" fill="#6c757d">UUID</text>
<line x1="1106" y1="536" x2="1394" y2="536" stroke="#dee2e6" stroke-width="0.8"/>
<rect x="1110" y="540" width="26" height="14" rx="3" fill="#5ba4f5"/>
<text x="1123" y="550" text-anchor="middle" font-family="monospace" font-size="8" font-weight="bold" fill="white">FK</text>
<text x="1142" y="551" font-family="monospace" font-size="11" fill="#212529">pedido_id</text>
<text x="1390" y="551" text-anchor="end" font-family="monospace" font-size="10" fill="#6c757d">UUID</text>
<line x1="1106" y1="558" x2="1394" y2="558" stroke="#dee2e6" stroke-width="0.8"/>
<rect x="1110" y="562" width="26" height="14" rx="3" fill="#f08c00"/>
<text x="1123" y="572" text-anchor="middle" font-family="monospace" font-size="8" font-weight="bold" fill="white">CHECK</text>
<text x="1142" y="573" font-family="monospace" font-size="11" fill="#212529">calificacion</text>
<text x="1390" y="573" text-anchor="end" font-family="monospace" font-size="10" fill="#6c757d">SMALLINT</text>
<line x1="1106" y1="580" x2="1394" y2="580" stroke="#dee2e6" stroke-width="0.8"/>
<text x="1110" y="595" font-family="monospace" font-size="11" fill="#212529">comentario</text>
<text x="1390" y="595" text-anchor="end" font-family="monospace" font-size="10" fill="#6c757d">TEXT</text>
<line x1="1106" y1="602" x2="1394" y2="602" stroke="#dee2e6" stroke-width="0.8"/>
<text x="1110" y="617" font-family="monospace" font-size="11" fill="#212529">fecha_resena</text>
<text x="1390" y="617" text-anchor="end" font-family="monospace" font-size="10" fill="#6c757d">TIMESTAMPTZ</text>
</svg>